# xmcd
#
# Track frame offsets: 
#        150
#        16738
#        32737
#        42660
#        57152
#        64751
#        71553
#        81213
#        99351
#        109463
#        125452
#        142478
#        164719
#
# Disc length: 2564 seconds
#
# Revision: 8
# Processed by: cddbd v1.5.2PL0 Copyright (c) Steve Scherf et al.
# Submitted via: ExactAudioCopy v1.1
#
DISCID=c00a020d
DTITLE=陳建年 - 海有多深
DYEAR=2000
DGENRE=Soundtrack
TTITLE0=生命的海洋 The Ocean Of Life
TTITLE1=海邊的孩子 Beach Children
TTITLE2=回想 Remebering
TTITLE3=浮雲 Drifting Clouds
TTITLE4=青春 Youth
TTITLE5=青春哀歌 Ballad To Youth
TTITLE6=哭泣的回家之路 The Crying Road Home
TTITLE7=海洋的招喚 The Ocean's Allure
TTITLE8=寂寞的雨 Lonely Rain
TTITLE9=蘭嶼情歌 Orchid Island Love Song
TTITLE10=生之喜悅 The Bliss Of Birth
TTITLE11=海有多深 How Deep Is The Ocean
TTITLE12=浪 Waves
EXTD=
EXTT0=
EXTT1=
EXTT2=
EXTT3=
EXTT4=
EXTT5=
EXTT6=
EXTT7=
EXTT8=
EXTT9=
EXTT10=
EXTT11=
EXTT12=
PLAYORDER=
